<svg width="653" height="532" viewBox="0 0 653 532" fill="none" xmlns="http://www.w3.org/2000/svg">
<path d="M648.499 462.337C648.499 482.582 511.164 498.991 341.736 498.991C172.308 498.991 34.9731 482.582 34.9731 462.337C34.9731 442.092 172.308 425.684 341.736 425.684C511.164 425.684 648.499 442.092 648.499 462.337Z" fill="#D9E4F5"/>
<path d="M179.674 30.5617C179.674 32.0127 179.087 33.3243 178.123 34.287C177.172 35.2497 175.844 35.8357 174.405 35.8357H61.4896C58.5961 35.8357 56.2198 33.4638 56.2198 30.5617C56.2198 29.1106 56.8069 27.7991 57.7714 26.8363C58.7219 25.8736 60.0498 25.2876 61.4896 25.2876H66.8292C68.9399 20.4042 73.8043 16.9858 79.4654 16.9858C83.2814 16.9858 86.734 18.5346 89.2221 21.0321C92.5489 15.3953 98.6853 11.6141 105.702 11.6141C107.631 11.6141 109.49 11.9071 111.252 12.4373C114.928 5.54475 122.182 0.842743 130.555 0.842743C140.606 0.842743 149.062 7.62368 151.62 16.8324C153.465 15.9115 155.562 15.3813 157.785 15.3813C164.047 15.3813 169.344 19.5531 171.008 25.2876H174.405C177.298 25.2876 179.674 27.6595 179.674 30.5617Z" fill="#D9E4F5"/>
<path d="M569.467 40.0355C569.467 41.4865 568.88 42.7981 567.915 43.7608C566.965 44.7235 565.637 45.3095 564.197 45.3095H451.282C448.389 45.3095 446.013 42.9376 446.013 40.0355C446.013 38.5844 446.6 37.2729 447.564 36.3101C448.515 35.3474 449.843 34.7614 451.282 34.7614H456.622C458.733 29.878 463.597 26.4596 469.258 26.4596C473.074 26.4596 476.527 28.0084 479.015 30.5059C482.342 24.869 488.478 21.0879 495.495 21.0879C497.424 21.0879 499.283 21.3809 501.044 21.9111C504.721 15.0185 511.975 10.3165 520.348 10.3165C530.398 10.3165 538.855 17.0975 541.413 26.3061C543.258 25.3853 545.355 24.8551 547.577 24.8551C553.839 24.8551 559.137 29.0269 560.801 34.7614H564.197C567.091 34.7614 569.467 37.1333 569.467 40.0355Z" fill="#D9E4F5"/>
<path d="M374.64 61.7596C374.64 63.2106 374.053 64.5222 373.089 65.4849C372.138 66.4476 370.811 67.0336 369.371 67.0336H256.456C253.562 67.0336 251.186 64.6617 251.186 61.7596C251.186 60.3085 251.773 58.997 252.738 58.0342C253.688 57.0715 255.016 56.4855 256.456 56.4855H261.795C263.906 51.6021 268.771 48.1837 274.432 48.1837C278.248 48.1837 281.7 49.7325 284.188 52.23C287.515 46.5931 293.652 42.812 300.669 42.812C302.597 42.812 304.457 43.105 306.218 43.6352C309.894 36.7426 317.149 32.0406 325.522 32.0406C335.572 32.0406 344.029 38.8216 346.586 48.0303C348.432 47.1094 350.528 46.5792 352.751 46.5792C359.013 46.5792 364.311 50.751 365.974 56.4855H369.371C372.264 56.4855 374.64 58.8574 374.64 61.7596Z" fill="#D9E4F5"/>
<path d="M617.258 306.236C605.335 325.072 622.807 322.505 614.127 336.653C606.215 349.545 588.687 342.68 595.536 368.283C597.032 373.878 593.859 378.999 588.561 382.459C579.853 388.138 569.802 386.966 562.604 381.761C562.017 381.343 561.458 380.896 560.912 380.422C555.223 375.483 551.827 367.809 553.252 359.116C554.413 352.07 557.6 344.675 565.246 340.294C583.152 330.025 566.713 306.976 582.746 302.19C602.064 296.427 601.155 289.074 612.883 276.252C625.323 262.662 633.431 280.717 617.258 306.236Z" fill="#C7D9ED"/>
<path d="M608.452 299.385C608.116 299.93 580.719 344.717 562.604 381.747C562.017 381.329 561.458 380.882 560.912 380.408C579.084 343.35 606.313 298.827 606.649 298.297C606.956 297.795 607.599 297.641 608.102 297.948C608.606 298.255 608.759 298.897 608.452 299.399V299.385Z" fill="#B4CAE3"/>
<path d="M632.802 356.633C611.876 376.236 634.451 378.664 619.089 393.481C605.083 406.987 585.486 392.798 585.751 426.884C585.807 434.334 580.202 439.692 572.5 442.287C559.822 446.543 547.703 441.855 540.421 433.065C539.833 432.353 539.274 431.614 538.743 430.846C533.264 422.865 531.503 412.22 536.073 401.867C539.792 393.467 546.152 385.291 557.068 382.291C582.676 375.259 569.649 341.285 591.147 340.49C617.062 339.527 618.278 330.081 637.037 317.9C656.914 304.98 661.163 330.067 632.816 356.633H632.802Z" fill="#D9E4F5"/>
<path d="M624.051 345.289C623.464 345.861 574.904 392.798 540.421 433.065C539.833 432.353 539.274 431.614 538.743 430.846C573.325 390.551 621.577 343.908 622.164 343.336C622.71 342.82 623.562 342.834 624.079 343.364C624.597 343.908 624.583 344.759 624.051 345.275V345.289Z" fill="#C7D9ED"/>
<path d="M61.7692 148.586C74.7549 166.711 57.1705 165.148 66.6336 178.78C75.2721 191.197 92.3673 183.342 86.9997 209.294C85.8255 214.972 89.2781 219.898 94.7715 223.051C103.801 228.213 113.754 226.469 120.645 220.874C121.204 220.428 121.749 219.94 122.266 219.437C127.662 214.177 130.625 206.322 128.696 197.727C127.145 190.765 123.524 183.551 115.655 179.617C97.1897 170.38 112.272 146.438 96.0155 142.573C76.3903 137.913 76.8935 130.532 64.4391 118.393C51.2437 105.529 44.1848 124.03 61.7832 148.586H61.7692Z" fill="#C7D9ED"/>
<path d="M70.1701 141.247C70.5335 141.763 100.447 184.919 120.645 220.86C121.204 220.414 121.749 219.926 122.266 219.423C101.998 183.454 72.2668 140.564 71.9034 140.047C71.5679 139.573 70.9109 139.447 70.4357 139.782C69.9604 140.117 69.8346 140.773 70.1701 141.247Z" fill="#B4CAE3"/>
<path d="M50.5867 206.503C73.1474 224.209 50.8663 228.59 67.4723 242.026C82.6105 254.263 100.894 238.427 103.606 272.401C104.193 279.838 110.245 284.679 118.143 286.591C131.142 289.73 142.814 284.01 149.3 274.62C149.831 273.866 150.32 273.071 150.782 272.262C155.548 263.834 156.373 253.077 150.907 243.157C146.476 235.106 139.417 227.516 128.291 225.479C102.166 220.707 112.174 185.728 90.7038 186.788C64.8025 188.086 62.7617 178.78 43.0246 168.273C22.0994 157.139 20.0446 182.491 50.6147 206.503H50.5867Z" fill="#D9E4F5"/>
<path d="M58.3166 194.434C58.9457 194.951 111.419 237.478 149.3 274.606C149.831 273.852 150.32 273.057 150.782 272.248C112.817 235.12 60.665 192.844 60.0359 192.328C59.4489 191.853 58.5962 191.951 58.121 192.523C57.6457 193.109 57.7435 193.96 58.3166 194.434Z" fill="#C7D9ED"/>
<path d="M512.996 87.1671C500.01 105.292 517.594 103.729 508.131 117.36C499.493 129.778 482.398 121.923 487.765 147.875C488.939 153.553 485.487 158.479 479.993 161.632C470.963 166.794 461.011 165.05 454.12 159.455C453.561 159.009 453.016 158.52 452.498 158.018C447.103 152.758 444.14 144.903 446.068 136.308C447.62 129.346 451.24 122.132 459.11 118.198C477.575 108.961 462.493 85.0184 478.749 81.1536C498.374 76.4934 497.871 69.1125 510.326 56.9738C523.521 44.1096 530.58 62.6107 512.982 87.1671H512.996Z" fill="#C7D9ED"/>
<path d="M504.595 79.8421C504.231 80.3583 474.318 123.514 454.12 159.455C453.561 159.009 453.016 158.52 452.498 158.018C472.767 122.049 502.498 79.1584 502.861 78.6421C503.197 78.1678 503.854 78.0422 504.329 78.377C504.804 78.7119 504.93 79.3677 504.595 79.8421Z" fill="#B4CAE3"/>
<path d="M554.846 111.835C532.285 129.541 554.566 133.922 537.96 147.358C522.822 159.595 504.539 143.759 501.827 177.733C501.24 185.17 495.187 190.011 487.29 191.923C474.29 195.062 462.619 189.342 456.133 179.952C455.602 179.198 455.112 178.403 454.651 177.594C449.885 169.166 449.06 158.409 454.525 148.489C458.956 140.438 466.015 132.848 477.142 130.811C503.267 126.039 493.258 91.0599 514.729 92.1203C540.63 93.4179 542.671 84.1115 562.408 73.6053C583.333 62.4711 585.388 87.8229 554.818 111.835H554.846Z" fill="#D9E4F5"/>
<path d="M547.116 99.7663C546.487 100.283 494.013 142.81 456.133 179.938C455.602 179.184 455.112 178.389 454.651 177.58C492.616 140.452 544.768 98.1757 545.397 97.6595C545.984 97.1851 546.836 97.2827 547.312 97.8548C547.787 98.4408 547.689 99.2919 547.116 99.7663Z" fill="#C7D9ED"/>
<path d="M227.27 131.983C218.449 125.955 196.336 140.829 184.79 158.897L195.05 130.225C198.754 127.016 205.254 122.509 215.416 118.909C231.211 113.328 247.035 104.58 238.187 98.5245C229.898 92.8598 209.909 105.626 197.93 122.16L211.097 85.3394C213.543 83.4558 217.275 81.1676 222.601 79.284C232.553 75.7679 242.52 70.2427 236.956 66.4337C232.12 63.1269 220.966 69.7823 213.348 79.0607L217.611 67.1313C219.568 63.6711 222.335 58.7039 226.711 54.1973C236.845 43.7329 244.519 31.9569 236.691 30.2407C228.863 28.5385 216.059 49.0488 214.046 67.5778L211.852 73.7169C213.557 60.2387 208.707 43.9142 201.927 43.3422C195.204 42.7701 199.425 53.3462 204.891 62.3595C209.056 69.2242 210.202 74.6657 210.51 77.4841L200.138 106.491C202.78 85.1301 195.092 59.3737 184.371 58.4668C173.692 57.5598 180.387 74.3308 189.068 88.6322C195.623 99.4454 197.468 108.04 197.972 112.533L185.531 147.317C187.74 126.206 180.178 100.603 169.624 100.52C161.489 100.45 163.977 111.919 173.692 128.09C180.289 139.085 182.4 148.963 183.085 154.153L177.228 170.534C178.207 171.231 179.227 171.594 180.247 171.608L182.582 165.092C185.881 161.911 192.73 156.511 204.513 152.34C220.309 146.758 236.132 138.01 227.284 131.955L227.27 131.983Z" fill="#D9E4F5"/>
<path d="M115.445 435.311H120.337L120.17 435.158C118.394 430.944 115.836 422.6 116.214 410.127C116.717 393.412 114.285 375.524 105.437 381.552C96.6025 387.579 102.487 413.531 115.165 430.832L92.1156 410.908C90.4662 406.29 88.6071 398.616 88.9286 387.872C89.4318 371.157 86.9996 353.27 78.1515 359.298C69.8625 364.948 74.5451 388.179 85.6437 405.313L56.0382 379.724C55.1715 376.766 54.3887 372.469 54.5565 366.832C54.878 356.298 53.3404 345.024 47.7631 348.833C42.9267 352.14 45.0933 364.934 50.9921 375.385L41.4031 367.083C38.8731 364.014 35.2527 359.632 32.6249 353.926C26.5164 340.699 18.3113 329.3 13.8803 335.955C9.44921 342.61 23.9585 361.963 40.5365 370.557L45.4707 374.827C33.5055 368.353 16.5081 366.958 13.5029 373.041C10.5255 379.096 21.9316 378.999 32.3313 377.171C40.2429 375.79 45.7503 376.682 48.49 377.422L71.8194 397.583C52.8372 387.384 25.9993 385.208 21.2607 394.849C16.5361 404.448 34.6237 404.295 51.1318 401.406C63.6003 399.23 72.2947 400.625 76.6838 401.783L104.654 425.963C85.7416 416.266 59.0854 414.02 55.1855 423.8C52.1802 431.349 63.782 433.176 82.4148 430.009C95.0789 427.846 105.059 429.465 110.161 430.721L115.473 435.311H115.445Z" fill="#D9E4F5"/>
<path d="M602.777 98.985C599.087 98.985 596.095 95.9852 596.095 92.3156C596.095 88.6461 599.101 85.6463 602.777 85.6463C606.453 85.6463 609.458 88.6322 609.458 92.3156C609.458 95.9991 606.467 98.985 602.777 98.985ZM602.777 96.8921C605.307 96.8921 607.362 94.841 607.362 92.3156C607.362 89.7902 605.307 87.7392 602.777 87.7392C600.247 87.7392 598.192 89.7902 598.192 92.3156C598.192 94.841 600.247 96.8921 602.777 96.8921Z" fill="#007EFF"/>
<path d="M609.57 132.89C605.88 132.89 602.889 129.89 602.889 126.22C602.889 122.551 605.88 119.551 609.57 119.551C613.26 119.551 616.252 122.537 616.252 126.22C616.252 129.904 613.26 132.89 609.57 132.89ZM609.57 130.797C612.1 130.797 614.155 128.746 614.155 126.22C614.155 123.695 612.1 121.644 609.57 121.644C607.04 121.644 604.985 123.695 604.985 126.22C604.985 128.746 607.04 130.797 609.57 130.797Z" fill="#0060E6"/>
<path d="M629.894 142.28C629.894 141.708 629.419 141.233 628.846 141.233H624.219C623.646 141.233 623.171 141.708 623.171 142.28C623.171 142.852 623.646 143.326 624.219 143.326H628.846C629.419 143.326 629.894 142.852 629.894 142.28Z" fill="#007EFF"/>
<path d="M637.988 142.28C637.988 141.708 637.512 141.233 636.939 141.233H632.312C631.739 141.233 631.264 141.708 631.264 142.28C631.264 142.852 631.739 143.326 632.312 143.326H636.939C637.512 143.326 637.988 142.852 637.988 142.28Z" fill="#007EFF"/>
<path d="M631.641 148.754V144.61C631.641 144.038 631.166 143.563 630.593 143.563C630.02 143.563 629.545 144.038 629.545 144.61V148.754C629.545 149.326 630.02 149.8 630.593 149.8C631.166 149.8 631.641 149.326 631.641 148.754Z" fill="#007EFF"/>
<path d="M631.641 139.95V135.806C631.641 135.234 631.166 134.759 630.593 134.759C630.02 134.759 629.545 135.234 629.545 135.806V139.95C629.545 140.522 630.02 140.996 630.593 140.996C631.166 140.996 631.641 140.522 631.641 139.95Z" fill="#007EFF"/>
<path d="M622.36 106.645C622.36 106.073 621.885 105.598 621.312 105.598H616.685C616.112 105.598 615.637 106.073 615.637 106.645C615.637 107.217 616.112 107.691 616.685 107.691H621.312C621.885 107.691 622.36 107.217 622.36 106.645Z" fill="#0060E6"/>
<path d="M630.453 106.645C630.453 106.073 629.978 105.598 629.405 105.598H624.778C624.205 105.598 623.73 106.073 623.73 106.645C623.73 107.217 624.205 107.691 624.778 107.691H629.405C629.978 107.691 630.453 107.217 630.453 106.645Z" fill="#0060E6"/>
<path d="M624.093 113.133V108.989C624.093 108.417 623.618 107.942 623.045 107.942C622.472 107.942 621.997 108.417 621.997 108.989V113.133C621.997 113.705 622.472 114.179 623.045 114.179C623.618 114.179 624.093 113.705 624.093 113.133Z" fill="#0060E6"/>
<path d="M624.093 104.315V100.171C624.093 99.5989 623.618 99.1245 623.045 99.1245C622.472 99.1245 621.997 99.5989 621.997 100.171V104.315C621.997 104.887 622.472 105.361 623.045 105.361C623.618 105.361 624.093 104.887 624.093 104.315Z" fill="#0060E6"/>
<path d="M48.7975 316.631C48.7975 320.314 45.8062 323.3 42.116 323.3C38.4258 323.3 35.4344 320.3 35.4344 316.631C35.4344 312.961 38.4258 309.961 42.116 309.961C45.8062 309.961 48.7975 312.961 48.7975 316.631ZM37.5312 316.631C37.5312 319.156 39.5859 321.207 42.116 321.207C44.646 321.207 46.7008 319.156 46.7008 316.631C46.7008 314.105 44.646 312.054 42.116 312.054C39.5859 312.054 37.5312 314.105 37.5312 316.631Z" fill="#007EFF"/>
<path d="M55.5908 282.726C55.5908 286.41 52.5995 289.395 48.9093 289.395C45.2191 289.395 42.2278 286.396 42.2278 282.726C42.2278 279.057 45.2191 276.057 48.9093 276.057C52.5995 276.057 55.5908 279.057 55.5908 282.726ZM44.3245 282.726C44.3245 285.251 46.3793 287.302 48.9093 287.302C51.4393 287.302 53.4941 285.251 53.4941 282.726C53.4941 280.201 51.4393 278.15 48.9093 278.15C46.3793 278.15 44.3245 280.201 44.3245 282.726Z" fill="#0060E6"/>
<path d="M69.2474 266.653C69.2474 267.225 68.7721 267.699 68.199 267.699H63.5723C62.9992 267.699 62.5239 267.225 62.5239 266.653C62.5239 266.081 62.9992 265.606 63.5723 265.606H68.199C68.7721 265.606 69.2474 266.081 69.2474 266.653Z" fill="#007EFF"/>
<path d="M77.3267 266.653C77.3267 267.225 76.8515 267.699 76.2784 267.699H71.6516C71.0785 267.699 70.6033 267.225 70.6033 266.653C70.6033 266.081 71.0785 265.606 71.6516 265.606H76.2784C76.8515 265.606 77.3267 266.081 77.3267 266.653Z" fill="#007EFF"/>
<path d="M70.9806 260.179V264.323C70.9806 264.895 70.5054 265.369 69.9323 265.369C69.3592 265.369 68.8839 264.895 68.8839 264.323V260.179C68.8839 259.607 69.3592 259.132 69.9323 259.132C70.5054 259.132 70.9806 259.607 70.9806 260.179Z" fill="#007EFF"/>
<path d="M70.9806 268.983V273.127C70.9806 273.699 70.5054 274.173 69.9323 274.173C69.3592 274.173 68.8839 273.699 68.8839 273.127V268.983C68.8839 268.411 69.3592 267.936 69.9323 267.936C70.5054 267.936 70.9806 268.411 70.9806 268.983Z" fill="#007EFF"/>
<path d="M61.6993 302.288C61.6993 302.86 61.224 303.334 60.6509 303.334H56.0242C55.4511 303.334 54.9758 302.86 54.9758 302.288C54.9758 301.715 55.4511 301.241 56.0242 301.241H60.6509C61.224 301.241 61.6993 301.715 61.6993 302.288Z" fill="#0060E6"/>
<path d="M69.7926 302.288C69.7926 302.86 69.3173 303.334 68.7442 303.334H64.1174C63.5443 303.334 63.0691 302.86 63.0691 302.288C63.0691 301.715 63.5443 301.241 64.1174 301.241H68.7442C69.3173 301.241 69.7926 301.715 69.7926 302.288Z" fill="#0060E6"/>
<path d="M63.4325 295.814V299.957C63.4325 300.53 62.9573 301.004 62.3842 301.004C61.8111 301.004 61.3358 300.53 61.3358 299.957V295.814C61.3358 295.241 61.8111 294.767 62.3842 294.767C62.9573 294.767 63.4325 295.241 63.4325 295.814Z" fill="#0060E6"/>
<path d="M63.4325 304.618V308.762C63.4325 309.334 62.9573 309.808 62.3842 309.808C61.8111 309.808 61.3358 309.334 61.3358 308.762V304.618C61.3358 304.046 61.8111 303.571 62.3842 303.571C62.9573 303.571 63.4325 304.046 63.4325 304.618Z" fill="#0060E6"/>
<path d="M375.242 80.4002L375.018 88.3531L382.482 88.5624C382.804 90.4599 383.447 92.3017 384.383 94.0318L379.1 99.0129L384.565 104.803L389.625 100.031C391.61 101.468 393.818 102.459 396.125 102.989L395.915 110.44L403.883 110.663L404.106 102.989C405.672 102.641 407.195 102.068 408.649 101.301L413.639 106.575L419.44 101.12L414.66 96.0689C416.1 94.0876 417.092 91.8831 417.623 89.5809L424.151 89.7623L424.375 81.8094L417.623 81.614C417.176 79.6188 416.393 77.6794 415.247 75.9074L420.307 71.1357L414.841 65.3454L409.558 70.3264C407.601 69.1265 405.462 68.3312 403.254 67.9545L403.477 60.462L395.51 60.2387L395.272 68.3591C393.609 68.8335 392.001 69.5451 390.506 70.5078L385.725 65.457L379.924 70.9124L384.914 76.1865C384.048 77.5817 383.405 79.0747 382.957 80.6094L375.27 80.3862L375.242 80.4002ZM395.132 80.2606C398.068 77.498 402.695 77.6375 405.462 80.5536C408.23 83.4837 408.09 88.102 405.169 90.8646C402.233 93.6272 397.607 93.4876 394.839 90.5716C392.071 87.6415 392.211 83.0232 395.132 80.2606Z" fill="#007EFF"/>
<path d="M401.381 97.0595C407.824 96.3619 412.479 90.5995 411.794 84.1673C411.095 77.7352 405.322 73.089 398.879 73.7727C392.435 74.4703 387.78 80.2327 388.465 86.6648C389.15 93.097 394.937 97.7432 401.381 97.0595ZM395.132 80.2746C398.068 77.512 402.695 77.6515 405.462 80.5676C408.23 83.4976 408.09 88.1159 405.169 90.8785C402.233 93.6411 397.607 93.5016 394.839 90.5855C392.071 87.6555 392.211 83.0372 395.132 80.2746Z" fill="#0060E6"/>
<path d="M427.659 83.7906L427.534 88.4089L431.867 88.5345C432.048 89.6367 432.426 90.7111 432.971 91.7157L429.896 94.6039L433.069 97.9664L436.004 95.1899C437.151 96.027 438.436 96.5991 439.778 96.906L439.653 101.231L444.279 101.357L444.405 96.8921C445.314 96.6828 446.194 96.3619 447.047 95.9154L449.94 98.985L453.309 95.8177L450.528 92.8877C451.366 91.7436 451.939 90.46 452.247 89.1205L456.035 89.2321L456.175 84.6138L452.247 84.5022C451.981 83.3441 451.534 82.214 450.863 81.1815L453.798 78.4049L450.625 75.0424L447.55 77.9306C446.418 77.2329 445.174 76.7725 443.888 76.5493L444.014 72.1961L439.387 72.0705L439.247 76.7865C438.283 77.0655 437.346 77.4701 436.48 78.0282L433.698 75.0982L430.329 78.2654L433.223 81.335C432.719 82.1442 432.342 83.0093 432.09 83.9023L427.617 83.7767L427.659 83.7906ZM439.205 83.7069C440.911 82.1024 443.594 82.1861 445.202 83.8744C446.809 85.5766 446.726 88.2555 445.034 89.86C443.329 91.4645 440.645 91.3808 439.038 89.6926C437.43 87.9903 437.514 85.3115 439.205 83.7069Z" fill="#007EFF"/>
<path d="M442.84 93.4598C446.586 93.0551 449.284 89.7065 448.892 85.9672C448.487 82.228 445.132 79.5351 441.386 79.9258C437.64 80.3304 434.942 83.679 435.333 87.4183C435.739 91.1576 439.093 93.8504 442.84 93.4598ZM439.205 83.7069C440.911 82.1024 443.594 82.1861 445.202 83.8744C446.809 85.5766 446.726 88.2555 445.034 89.86C443.329 91.4645 440.645 91.3808 439.038 89.6926C437.43 87.9903 437.514 85.3115 439.205 83.7069Z" fill="#0060E6"/>
<path d="M57.9815 260.388L57.8972 260.514L57.9253 260.388H57.9815Z" fill="#0060E6"/>
<path d="M572.682 126.109V469.816C572.682 472.997 570.096 475.578 566.895 475.578H95.7499C94.2682 475.578 92.9123 475.02 91.8919 474.099C90.7178 473.039 89.9769 471.518 89.9769 469.802V126.109C89.9769 122.928 92.5629 120.332 95.7499 120.332H566.895C568.796 120.332 570.487 121.253 571.55 122.676C572.263 123.639 572.682 124.825 572.682 126.109Z" fill="#3B3E7D"/>
<path d="M572.682 126.109V469.816C572.682 472.997 570.096 475.578 566.895 475.578H95.7499C94.2682 475.578 92.9123 475.02 91.8919 474.099L571.55 122.676C572.263 123.639 572.682 124.825 572.682 126.109Z" fill="#18285D"/>
<path d="M110.063 134.048H552.582C556.09 134.048 558.942 136.894 558.942 140.396V455.528C558.942 459.03 556.09 461.877 552.582 461.877H110.063C106.555 461.877 103.703 459.03 103.703 455.528V140.396C103.703 136.894 106.555 134.034 110.077 134.034L110.063 134.048Z" fill="white"/>
<path d="M558.956 140.396V162.511H103.689V140.396C103.689 136.88 106.541 134.034 110.049 134.034H552.582C556.104 134.034 558.956 136.88 558.956 140.396Z" fill="#D9E4F5"/>
<path d="M180.862 149.019C180.862 151.112 182.554 152.8 184.65 152.8H516.49C518.587 152.8 520.278 151.112 520.278 149.019C520.278 146.926 518.587 145.238 516.49 145.238H184.65C182.554 145.238 180.862 146.926 180.862 149.019Z" fill="white"/>
<path d="M129.004 149.019V151.823C129.004 152.633 128.137 153.135 127.438 152.73L125.006 151.335L122.574 149.94C121.875 149.535 121.875 148.53 122.574 148.14L125.006 146.745L127.438 145.349C128.137 144.945 129.004 145.447 129.004 146.256V149.061V149.019Z" fill="#3B3E7D"/>
<path d="M141.64 149.019V151.823C141.64 152.633 142.507 153.135 143.205 152.73L145.638 151.335L148.07 149.94C148.769 149.535 148.769 148.53 148.07 148.14L145.638 146.745L143.205 145.349C142.507 144.945 141.64 145.447 141.64 146.256V149.061V149.019Z" fill="#3B3E7D"/>
<path d="M523.465 175.208H150.348C143.809 175.208 138.509 180.499 138.509 187.026V370.432C138.509 376.959 143.809 382.25 150.348 382.25H523.465C530.004 382.25 535.305 376.959 535.305 370.432V187.026C535.305 180.499 530.004 175.208 523.465 175.208Z" fill="#D9E4F5"/>
<path d="M535.305 187.026V195.634H138.509V187.026C138.509 180.496 143.806 175.208 150.348 175.208H523.465C530.007 175.208 535.305 180.496 535.305 187.026Z" fill="#B4CAE3"/>
<path d="M497.186 185.226C497.186 187.444 495.397 189.23 493.175 189.23C490.952 189.23 489.163 187.444 489.163 185.226C489.163 183.007 490.966 181.221 493.175 181.221C495.383 181.221 497.186 183.007 497.186 185.226Z" fill="#3B3E7D"/>
<path d="M510.032 185.226C510.032 187.444 508.243 189.23 506.02 189.23C503.798 189.23 502.009 187.444 502.009 185.226C502.009 183.007 503.812 181.221 506.02 181.221C508.229 181.221 510.032 183.007 510.032 185.226Z" fill="#0060E6"/>
<path d="M522.864 185.226C522.864 187.444 521.061 189.23 518.852 189.23C516.644 189.23 514.841 187.444 514.841 185.226C514.841 183.007 516.63 181.221 518.852 181.221C521.075 181.221 522.864 183.007 522.864 185.226Z" fill="#007EFF"/>
<path d="M246.559 207.299H149.272V276.796H246.559V207.299Z" fill="#007EFF"/>
<path d="M246.559 258.407L241.821 250.468L226.151 224.125L194.826 276.81H246.559V258.407Z" fill="#18285D"/>
<path d="M188.341 276.81H149.272L168.799 245.389L188.341 213.968L207.868 245.389L227.395 276.81H188.341Z" fill="#3B3E7D"/>
<path d="M175.677 234.339L188.341 243.798L201.005 234.339L188.341 213.968L175.677 234.339Z" fill="white"/>
<path d="M215.486 242.054L226.151 250.468L236.831 242.054L226.151 224.125L215.486 242.054Z" fill="white"/>
<path d="M515.987 296.846H418.699V366.344H515.987V296.846Z" fill="#007EFF"/>
<path d="M515.987 347.954L511.248 340.001L495.593 313.673L464.254 366.344H515.987V347.954Z" fill="#18285D"/>
<path d="M457.768 366.344H418.699L438.227 334.923L457.768 303.515L477.296 334.923L496.823 366.344H457.768Z" fill="#3B3E7D"/>
<path d="M445.104 323.886L457.768 333.346L470.432 323.886L457.768 303.515L445.104 323.886Z" fill="white"/>
<path d="M484.914 331.602L495.593 340.001L506.258 331.602L495.593 313.673L484.914 331.602Z" fill="white"/>
<path d="M242.142 293.721H153.675C151.243 293.721 149.258 291.753 149.258 289.312C149.258 286.884 151.229 284.903 153.675 284.903H242.142C244.574 284.903 246.559 286.87 246.559 289.312C246.559 291.739 244.588 293.721 242.142 293.721Z" fill="#B4CAE3"/>
<path d="M242.142 311.985H153.675C151.243 311.985 149.258 310.017 149.258 307.576C149.258 305.148 151.229 303.167 153.675 303.167H242.142C244.574 303.167 246.559 305.134 246.559 307.576C246.559 310.003 244.588 311.985 242.142 311.985Z" fill="#B4CAE3"/>
<path d="M242.142 330.248H153.675C151.243 330.248 149.258 328.281 149.258 325.839C149.258 323.412 151.229 321.43 153.675 321.43H242.142C244.574 321.43 246.559 323.398 246.559 325.839C246.559 328.267 244.588 330.248 242.142 330.248Z" fill="#B4CAE3"/>
<path d="M242.142 348.512H153.675C151.243 348.512 149.258 346.545 149.258 344.103C149.258 341.676 151.229 339.694 153.675 339.694H242.142C244.574 339.694 246.559 341.662 246.559 344.103C246.559 346.531 244.588 348.512 242.142 348.512Z" fill="#B4CAE3"/>
<path d="M242.142 366.776H153.675C151.243 366.776 149.258 364.809 149.258 362.367C149.258 359.939 151.229 357.958 153.675 357.958H242.142C244.574 357.958 246.559 359.926 246.559 362.367C246.559 364.795 244.588 366.776 242.142 366.776Z" fill="#B4CAE3"/>
<path d="M263.389 211.708C263.389 214.135 265.36 216.117 267.806 216.117H396.782C399.214 216.117 401.199 214.149 401.199 211.708C401.199 209.28 399.228 207.299 396.782 207.299H267.806C265.374 207.299 263.389 209.266 263.389 211.708Z" fill="#B4CAE3"/>
<path d="M396.768 226.135H267.806C265.367 226.135 263.389 228.105 263.389 230.537C263.389 232.968 265.367 234.939 267.806 234.939H396.768C399.207 234.939 401.185 232.968 401.185 230.537C401.185 228.105 399.207 226.135 396.768 226.135Z" fill="#B4CAE3"/>
<path d="M263.389 249.379C263.389 251.807 265.36 253.788 267.806 253.788H396.782C399.214 253.788 401.199 251.821 401.199 249.379C401.199 246.952 399.228 244.97 396.782 244.97H267.806C265.374 244.97 263.389 246.938 263.389 249.379Z" fill="#B4CAE3"/>
<path d="M263.389 268.201C263.389 270.629 265.36 272.61 267.806 272.61H396.782C399.214 272.61 401.199 270.643 401.199 268.201C401.199 265.774 399.228 263.792 396.782 263.792H267.806C265.374 263.792 263.389 265.76 263.389 268.201Z" fill="#B4CAE3"/>
<path d="M396.768 282.628H267.806C265.367 282.628 263.389 284.599 263.389 287.03C263.389 289.462 265.367 291.432 267.806 291.432H396.768C399.207 291.432 401.185 289.462 401.185 287.03C401.185 284.599 399.207 282.628 396.768 282.628Z" fill="#B4CAE3"/>
<path d="M263.389 305.873C263.389 308.301 265.36 310.282 267.806 310.282H396.782C399.214 310.282 401.199 308.315 401.199 305.873C401.199 303.446 399.228 301.464 396.782 301.464H267.806C265.374 301.464 263.389 303.432 263.389 305.873Z" fill="#B4CAE3"/>
<path d="M263.389 324.709C263.389 327.137 265.36 329.118 267.806 329.118H396.782C399.214 329.118 401.199 327.151 401.199 324.709C401.199 322.282 399.228 320.3 396.782 320.3H267.806C265.374 320.3 263.389 322.268 263.389 324.709Z" fill="#B4CAE3"/>
<path d="M263.389 343.531C263.389 345.959 265.36 347.94 267.806 347.94H396.782C399.214 347.94 401.199 345.973 401.199 343.531C401.199 341.104 399.228 339.122 396.782 339.122H267.806C265.374 339.122 263.389 341.09 263.389 343.531Z" fill="#B4CAE3"/>
<path d="M263.389 362.367C263.389 364.795 265.36 366.776 267.806 366.776H396.782C399.214 366.776 401.199 364.809 401.199 362.367C401.199 359.939 399.228 357.958 396.782 357.958H267.806C265.374 357.958 263.389 359.926 263.389 362.367Z" fill="#B4CAE3"/>
<path d="M461.878 211.708C461.878 214.135 463.849 216.117 466.295 216.117H510.256C512.688 216.117 514.673 214.149 514.673 211.708C514.673 209.28 512.702 207.299 510.256 207.299H466.295C463.863 207.299 461.878 209.266 461.878 211.708Z" fill="#B4CAE3"/>
<path d="M461.878 230.544C461.878 232.971 463.849 234.953 466.295 234.953H510.256C512.688 234.953 514.673 232.985 514.673 230.544C514.673 228.116 512.702 226.135 510.256 226.135H466.295C463.863 226.135 461.878 228.102 461.878 230.544Z" fill="#B4CAE3"/>
<path d="M461.878 249.379C461.878 251.807 463.849 253.788 466.295 253.788H510.256C512.688 253.788 514.673 251.821 514.673 249.379C514.673 246.952 512.702 244.97 510.256 244.97H466.295C463.863 244.97 461.878 246.938 461.878 249.379Z" fill="#B4CAE3"/>
<path d="M461.878 268.201C461.878 270.629 463.849 272.61 466.295 272.61H510.256C512.688 272.61 514.673 270.643 514.673 268.201C514.673 265.774 512.702 263.792 510.256 263.792H466.295C463.863 263.792 461.878 265.76 461.878 268.201Z" fill="#B4CAE3"/>
<path d="M461.878 287.037C461.878 289.465 463.849 291.446 466.295 291.446H510.256C512.688 291.446 514.673 289.479 514.673 287.037C514.673 284.61 512.702 282.628 510.256 282.628H466.295C463.863 282.628 461.878 284.596 461.878 287.037Z" fill="#B4CAE3"/>
<path d="M436.577 242.989C446.451 242.989 454.455 235 454.455 225.144C454.455 215.288 446.451 207.299 436.577 207.299C426.704 207.299 418.699 215.288 418.699 225.144C418.699 235 426.704 242.989 436.577 242.989Z" fill="#B4CAE3"/>
<path d="M436.577 289.465C446.451 289.465 454.455 281.476 454.455 271.62C454.455 261.764 446.451 253.775 436.577 253.775C426.704 253.775 418.699 261.764 418.699 271.62C418.699 281.476 426.704 289.465 436.577 289.465Z" fill="#B4CAE3"/>
<path d="M335.569 67.5113V99.4261C335.569 99.5879 336.245 99.7188 337.081 99.7188C337.917 99.7188 338.593 99.5879 338.593 99.4261V67.5113H335.569Z" fill="#007EFF"/>
<path d="M352.821 148.572C352.695 156.86 345.943 163.809 337.654 164.185C328.541 164.604 320.993 157.335 320.993 148.321C320.993 147.707 321.049 147.107 321.118 146.507C323.704 148.335 326.304 150.191 329.002 151.865C330.512 155.214 334.118 157.446 338.144 156.888C341.834 156.386 344.839 153.456 345.454 149.786C346.251 144.959 343.022 140.703 338.591 139.824C335.586 139.824 333.154 137.382 333.154 134.383V132.513H338.591C346.656 133.364 352.96 140.257 352.821 148.572Z" fill="#18285D"/>
<path d="M336.914 177.719C335.963 177.719 335.194 176.952 335.194 176.003V156.958C335.194 156.009 335.963 155.242 336.914 155.242C337.864 155.242 338.633 156.009 338.633 156.958V176.003C338.633 176.952 337.864 177.719 336.914 177.719Z" fill="#00A0FF"/>
<path d="M346.349 123.737H327.716V106.087C327.716 102.417 330.693 99.4454 334.37 99.4454H339.709C343.385 99.4454 346.363 102.417 346.363 106.087V123.737H346.349Z" fill="#0060E6"/>
<path d="M346.349 123.737C348.474 129.75 344.238 133.811 341.54 133.811H333.14C329.156 133.811 326.346 128.774 327.702 123.737H346.335H346.349Z" fill="#007EFF"/>
<path d="M207.393 521.663C207.393 527.091 160.972 531.486 103.703 531.486C46.4352 531.486 0 527.091 0 521.663C0 516.236 46.4212 511.841 103.689 511.841C160.958 511.841 207.379 516.236 207.379 521.663H207.393Z" fill="#D9E4F5"/>
<path d="M17.5006 521.663H179.716V327.835L24.8251 512.915L17.5006 521.663ZM155.38 497.372H69.527L155.38 394.793V497.372Z" fill="#007EFF"/>
<path d="M177.494 365.465H169.219V367.376H177.494V365.465Z" fill="#3B3E7D"/>
<path d="M177.494 376.487H169.219V378.399H177.494V376.487Z" fill="#3B3E7D"/>
<path d="M177.494 387.51H169.219V389.421H177.494V387.51Z" fill="#3B3E7D"/>
<path d="M177.494 398.532H169.219V400.444H177.494V398.532Z" fill="#3B3E7D"/>
<path d="M177.494 409.569H169.219V411.48H177.494V409.569Z" fill="#3B3E7D"/>
<path d="M177.494 420.591H169.219V422.503H177.494V420.591Z" fill="#3B3E7D"/>
<path d="M177.494 431.614H169.219V433.525H177.494V431.614Z" fill="#3B3E7D"/>
<path d="M177.494 442.65H169.219V444.562H177.494V442.65Z" fill="#3B3E7D"/>
<path d="M177.494 453.673H169.219V455.584H177.494V453.673Z" fill="#3B3E7D"/>
<path d="M177.494 464.695H169.219V466.607H177.494V464.695Z" fill="#3B3E7D"/>
<path d="M177.494 475.732H169.219V477.643H177.494V475.732Z" fill="#3B3E7D"/>
<path d="M177.494 486.754H169.219V488.666H177.494V486.754Z" fill="#3B3E7D"/>
<path d="M177.494 497.777H169.219V499.688H177.494V497.777Z" fill="#3B3E7D"/>
<path d="M177.494 508.799H169.219V510.711H177.494V508.799Z" fill="#3B3E7D"/>
<path d="M17.5006 521.663H179.716V512.915H24.8251L17.5006 521.663Z" fill="#0060E6"/>
<path d="M452.415 522.682C452.415 525.766 430.371 528.263 403.198 528.263C376.024 528.263 353.981 525.766 353.981 522.682C353.981 519.598 376.024 517.101 403.198 517.101C430.371 517.101 452.415 519.598 452.415 522.682Z" fill="#D9E4F5"/>
<path d="M434.495 368.688H371.873C367.063 368.688 363.165 372.579 363.165 377.38V513.99C363.165 518.79 367.063 522.682 371.873 522.682H434.495C439.304 522.682 443.203 518.79 443.203 513.99V377.38C443.203 372.579 439.304 368.688 434.495 368.688Z" fill="#3B3E7D"/>
<path d="M443.203 445.552V513.976C443.203 518.775 439.303 522.682 434.495 522.682H371.873C367.064 522.682 363.165 518.789 363.165 513.976V445.552H443.203Z" fill="#18285D"/>
<path d="M436.13 392.323V498.739C436.13 500.763 434.467 502.437 432.426 502.437H373.956C373.173 502.437 372.46 502.186 371.859 501.795C370.88 501.125 370.237 500.009 370.237 498.753V392.337C370.237 389.979 372.152 388.054 374.529 388.054H431.825C434.201 388.054 436.116 389.979 436.116 392.337L436.13 392.323Z" fill="#F9F9F9"/>
<path d="M436.13 392.323V398.016H370.251V392.323C370.251 389.965 372.166 388.04 374.543 388.04H431.839C434.215 388.04 436.13 389.965 436.13 392.323Z" fill="#D9E4F5"/>
<path d="M421.132 394.709H385.222C384.299 394.709 383.531 393.956 383.531 393.021C383.531 392.1 384.285 391.333 385.222 391.333H421.132C422.054 391.333 422.823 392.086 422.823 393.021C422.823 393.942 422.068 394.709 421.132 394.709Z" fill="#F9F9F9"/>
<path d="M403.184 515.692C405.616 515.692 407.587 513.724 407.587 511.297C407.587 508.869 405.616 506.902 403.184 506.902C400.752 506.902 398.781 508.869 398.781 511.297C398.781 513.724 400.752 515.692 403.184 515.692Z" fill="#586199"/>
<path d="M422.32 381.58H386.047C384.858 381.58 383.894 380.603 383.894 379.431C383.894 378.245 384.872 377.282 386.047 377.282H422.32C423.508 377.282 424.472 378.259 424.472 379.431C424.472 380.617 423.494 381.58 422.32 381.58Z" fill="#586199"/>
<path d="M379.966 404.183H426.401C429.393 404.183 431.825 406.611 431.825 409.597V490.242C431.825 493.228 429.393 495.656 426.401 495.656H379.966C376.975 495.656 374.543 493.228 374.543 490.242V409.597C374.543 406.611 376.975 404.183 379.966 404.183Z" fill="#D9E4F5"/>
<path d="M431.825 409.61V413.21H374.543V409.61C374.543 406.624 376.975 404.197 379.966 404.197H426.401C429.393 404.197 431.825 406.624 431.825 409.61Z" fill="#B4CAE3"/>
<path d="M425.479 436.106H380.875V467.974H425.479V436.106Z" fill="#007EFF"/>
<path d="M425.493 459.547L423.326 455.891L416.141 443.822L401.772 467.974H425.493V459.547Z" fill="#18285D"/>
<path d="M398.795 467.974H380.875L389.835 453.561L398.795 439.162L407.755 453.561L416.701 467.974H398.795Z" fill="#3B3E7D"/>
<path d="M392.98 448.496L398.795 452.836L404.596 448.496L398.795 439.162L392.98 448.496Z" fill="white"/>
<path d="M411.249 452.04L416.141 455.891L421.02 452.04L416.141 443.822L411.249 452.04Z" fill="white"/>
<path d="M423.746 419.475H382.608C381.651 419.475 380.875 420.25 380.875 421.205V421.456C380.875 422.412 381.651 423.186 382.608 423.186H423.746C424.703 423.186 425.479 422.412 425.479 421.456V421.205C425.479 420.25 424.703 419.475 423.746 419.475Z" fill="#B4CAE3"/>
<path d="M423.746 425.949H382.608C381.651 425.949 380.875 426.724 380.875 427.679V427.93C380.875 428.886 381.651 429.66 382.608 429.66H423.746C424.703 429.66 425.479 428.886 425.479 427.93V427.679C425.479 426.724 424.703 425.949 423.746 425.949Z" fill="#B4CAE3"/>
<path d="M423.746 473.918H382.608C381.651 473.918 380.875 474.692 380.875 475.648V475.899C380.875 476.855 381.651 477.629 382.608 477.629H423.746C424.703 477.629 425.479 476.855 425.479 475.899V475.648C425.479 474.692 424.703 473.918 423.746 473.918Z" fill="#B4CAE3"/>
<path d="M382.622 480.406H423.76C424.724 480.406 425.493 481.187 425.493 482.136V482.387C425.493 483.35 424.71 484.117 423.76 484.117H382.622C381.658 484.117 380.889 483.336 380.889 482.387V482.136C380.889 481.173 381.672 480.406 382.622 480.406Z" fill="#B4CAE3"/>
<path d="M84.0082 57.4622C83.7566 57.4622 83.519 57.4203 83.2674 57.4203V66.1546H90.4521C88.2576 61.2991 85.0426 58.3272 84.0082 57.4482V57.4622Z" fill="#007EFF"/>
<path d="M83.2674 83.8046H91.4586C92.1295 81.5861 92.5069 79.1724 92.5488 76.633H83.2674V83.8046Z" fill="#007EFF"/>
<path d="M87.8382 90.9204C89.0963 89.3019 90.1166 87.4741 90.8994 85.451H83.2814V95.0504C83.9104 94.6876 85.8673 93.404 87.8522 90.9065L87.8382 90.9204Z" fill="#007EFF"/>
<path d="M86.8877 57.9226C87.8102 58.8993 88.6769 59.9736 89.4736 61.1177C90.5779 62.6804 91.5144 64.3826 92.2413 66.1546H98.3637C95.7358 62.0247 91.5843 59.0667 86.8737 57.9226H86.8877Z" fill="#007EFF"/>
<path d="M99.3282 67.801H92.8703C93.6671 70.1311 94.1143 72.5449 94.1982 74.9866H101.299C101.131 72.4751 100.46 70.0613 99.3421 67.801H99.3282Z" fill="#007EFF"/>
<path d="M91.1231 67.801H83.2674V74.9866H92.5488C92.451 72.5309 91.9757 70.1171 91.1231 67.801Z" fill="#007EFF"/>
<path d="M92.6607 85.465C91.808 87.8927 90.5919 90.0832 89.0823 91.9947C88.3275 92.9575 87.5028 93.8504 86.6082 94.6318C91.822 93.4598 96.253 90.153 98.8949 85.465H92.6467H92.6607Z" fill="#007EFF"/>
<path d="M101.327 76.633H94.2122C94.1563 79.1445 93.8069 81.5582 93.1779 83.8046H99.7336C100.74 81.5443 101.285 79.1305 101.327 76.633Z" fill="#007EFF"/>
<path d="M63.6143 74.9866H70.8968C70.9807 72.5449 71.428 70.1311 72.2248 67.801H65.5852C64.439 70.0613 63.782 72.4751 63.6282 74.9866H63.6143Z" fill="#007EFF"/>
<path d="M78.5288 94.6736C77.6202 93.8783 76.7675 92.9854 75.9987 91.9947C74.4891 90.0832 73.287 87.8927 72.4203 85.465H65.9764C68.6463 90.167 73.273 93.5574 78.5148 94.6736H78.5288Z" fill="#007EFF"/>
<path d="M71.9172 83.8046C71.2882 81.5582 70.9387 79.1445 70.8828 76.633H63.5723C63.6282 79.1165 64.1454 81.5303 65.1518 83.8046H71.9032H71.9172Z" fill="#007EFF"/>
<path d="M76.9353 62.1084C76.0547 63.3781 75.272 64.7454 74.6429 66.1686H81.632V57.4343C81.4642 57.4343 81.2825 57.4343 81.1008 57.4622C80.3879 58.0622 78.6686 59.6248 76.9353 62.1223V62.1084Z" fill="#007EFF"/>
<path d="M81.6319 76.633H72.5461C72.6021 79.1724 72.9655 81.5861 73.6364 83.8046H81.6319V76.633Z" fill="#007EFF"/>
<path d="M81.632 94.9527V85.451H74.2096C76.474 91.3529 80.3879 94.1574 81.632 94.9527Z" fill="#007EFF"/>
<path d="M78.2632 57.8668C73.4408 58.9691 69.2054 61.9549 66.5216 66.1686H72.8397C73.5805 64.4106 74.5031 62.6944 75.6074 61.1317C76.4181 59.9737 77.2987 58.8714 78.2632 57.8668Z" fill="#007EFF"/>
<path d="M81.6319 67.801H73.9719C73.1192 70.1311 72.644 72.5309 72.5461 74.9866H81.6319V67.801Z" fill="#007EFF"/>
<path d="M52.8092 104.873H50.7544C50.2232 104.873 49.7899 104.44 49.7899 103.91V101.859C49.7899 101.329 50.2232 100.896 50.7544 100.896C51.2856 100.896 51.7189 101.329 51.7189 101.859V102.947H52.8092C53.3403 102.947 53.7737 103.38 53.7737 103.91C53.7737 104.44 53.3403 104.873 52.8092 104.873Z" fill="#B4CAE3"/>
<path d="M108.26 104.873H104.179C103.648 104.873 103.214 104.44 103.214 103.91C103.214 103.38 103.648 102.947 104.179 102.947H108.26C108.791 102.947 109.225 103.38 109.225 103.91C109.225 104.44 108.791 104.873 108.26 104.873ZM100.335 104.873H96.2531C95.7219 104.873 95.2886 104.44 95.2886 103.91C95.2886 103.38 95.7219 102.947 96.2531 102.947H100.335C100.866 102.947 101.299 103.38 101.299 103.91C101.299 104.44 100.866 104.873 100.335 104.873ZM92.4091 104.873H88.3275C87.7964 104.873 87.3631 104.44 87.3631 103.91C87.3631 103.38 87.7964 102.947 88.3275 102.947H92.4091C92.9403 102.947 93.3736 103.38 93.3736 103.91C93.3736 104.44 92.9403 104.873 92.4091 104.873ZM84.4836 104.873H80.402C79.8708 104.873 79.4375 104.44 79.4375 103.91C79.4375 103.38 79.8708 102.947 80.402 102.947H84.4836C85.0147 102.947 85.4481 103.38 85.4481 103.91C85.4481 104.44 85.0147 104.873 84.4836 104.873ZM76.558 104.873H72.4764C71.9452 104.873 71.5119 104.44 71.5119 103.91C71.5119 103.38 71.9452 102.947 72.4764 102.947H76.558C77.0892 102.947 77.5225 103.38 77.5225 103.91C77.5225 104.44 77.0892 104.873 76.558 104.873ZM68.6324 104.873H64.5508C64.0197 104.873 63.5863 104.44 63.5863 103.91C63.5863 103.38 64.0197 102.947 64.5508 102.947H68.6324C69.1636 102.947 69.5969 103.38 69.5969 103.91C69.5969 104.44 69.1636 104.873 68.6324 104.873ZM60.7069 104.873H56.6253C56.0941 104.873 55.6608 104.44 55.6608 103.91C55.6608 103.38 56.0941 102.947 56.6253 102.947H60.7069C61.238 102.947 61.6713 103.38 61.6713 103.91C61.6713 104.44 61.238 104.873 60.7069 104.873Z" fill="#B4CAE3"/>
<path d="M114.159 104.873H112.104C111.573 104.873 111.14 104.44 111.14 103.91C111.14 103.38 111.573 102.947 112.104 102.947H113.194V101.859C113.194 101.329 113.628 100.896 114.159 100.896C114.69 100.896 115.123 101.329 115.123 101.859V103.91C115.123 104.44 114.69 104.873 114.159 104.873Z" fill="#B4CAE3"/>
<path d="M114.159 99.1384C113.628 99.1384 113.195 98.7059 113.195 98.1757V94.2551C113.195 93.7249 113.628 93.2923 114.159 93.2923C114.69 93.2923 115.123 93.7249 115.123 94.2551V98.1757C115.123 98.7059 114.69 99.1384 114.159 99.1384ZM114.159 91.5343C113.628 91.5343 113.195 91.1018 113.195 90.5716V86.6509C113.195 86.1207 113.628 85.6882 114.159 85.6882C114.69 85.6882 115.123 86.1207 115.123 86.6509V90.5716C115.123 91.1018 114.69 91.5343 114.159 91.5343ZM114.159 83.9302C113.628 83.9302 113.195 83.4976 113.195 82.9674V79.0468C113.195 78.5166 113.628 78.0841 114.159 78.0841C114.69 78.0841 115.123 78.5166 115.123 79.0468V82.9674C115.123 83.4976 114.69 83.9302 114.159 83.9302ZM114.159 76.326C113.628 76.326 113.195 75.8935 113.195 75.3633V71.4426C113.195 70.9124 113.628 70.4799 114.159 70.4799C114.69 70.4799 115.123 70.9124 115.123 71.4426V75.3633C115.123 75.8935 114.69 76.326 114.159 76.326ZM114.159 68.7219C113.628 68.7219 113.195 68.2894 113.195 67.7592V63.8385C113.195 63.3083 113.628 62.8758 114.159 62.8758C114.69 62.8758 115.123 63.3083 115.123 63.8385V67.7592C115.123 68.2894 114.69 68.7219 114.159 68.7219ZM114.159 61.1177C113.628 61.1177 113.195 60.6852 113.195 60.155V56.2344C113.195 55.7042 113.628 55.2716 114.159 55.2716C114.69 55.2716 115.123 55.7042 115.123 56.2344V60.155C115.123 60.6852 114.69 61.1177 114.159 61.1177Z" fill="#B4CAE3"/>
<path d="M114.159 53.5136C113.628 53.5136 113.194 53.0811 113.194 52.5509V51.4626H112.104C111.573 51.4626 111.14 51.0301 111.14 50.4999C111.14 49.9697 111.573 49.5371 112.104 49.5371H114.159C114.69 49.5371 115.123 49.9697 115.123 50.4999V52.5509C115.123 53.0811 114.69 53.5136 114.159 53.5136Z" fill="#B4CAE3"/>
<path d="M108.26 51.4626H104.179C103.648 51.4626 103.214 51.0301 103.214 50.4999C103.214 49.9697 103.648 49.5371 104.179 49.5371H108.26C108.791 49.5371 109.225 49.9697 109.225 50.4999C109.225 51.0301 108.791 51.4626 108.26 51.4626ZM100.335 51.4626H96.2531C95.7219 51.4626 95.2886 51.0301 95.2886 50.4999C95.2886 49.9697 95.7219 49.5371 96.2531 49.5371H100.335C100.866 49.5371 101.299 49.9697 101.299 50.4999C101.299 51.0301 100.866 51.4626 100.335 51.4626ZM92.4091 51.4626H88.3275C87.7964 51.4626 87.3631 51.0301 87.3631 50.4999C87.3631 49.9697 87.7964 49.5371 88.3275 49.5371H92.4091C92.9403 49.5371 93.3736 49.9697 93.3736 50.4999C93.3736 51.0301 92.9403 51.4626 92.4091 51.4626ZM84.4836 51.4626H80.402C79.8708 51.4626 79.4375 51.0301 79.4375 50.4999C79.4375 49.9697 79.8708 49.5371 80.402 49.5371H84.4836C85.0147 49.5371 85.4481 49.9697 85.4481 50.4999C85.4481 51.0301 85.0147 51.4626 84.4836 51.4626ZM76.558 51.4626H72.4764C71.9452 51.4626 71.5119 51.0301 71.5119 50.4999C71.5119 49.9697 71.9452 49.5371 72.4764 49.5371H76.558C77.0892 49.5371 77.5225 49.9697 77.5225 50.4999C77.5225 51.0301 77.0892 51.4626 76.558 51.4626ZM68.6324 51.4626H64.5508C64.0197 51.4626 63.5863 51.0301 63.5863 50.4999C63.5863 49.9697 64.0197 49.5371 64.5508 49.5371H68.6324C69.1636 49.5371 69.5969 49.9697 69.5969 50.4999C69.5969 51.0301 69.1636 51.4626 68.6324 51.4626ZM60.7069 51.4626H56.6253C56.0941 51.4626 55.6608 51.0301 55.6608 50.4999C55.6608 49.9697 56.0941 49.5371 56.6253 49.5371H60.7069C61.238 49.5371 61.6713 49.9697 61.6713 50.4999C61.6713 51.0301 61.238 51.4626 60.7069 51.4626Z" fill="#B4CAE3"/>
<path d="M50.7544 53.5136C50.2232 53.5136 49.7899 53.0811 49.7899 52.5509V50.4999C49.7899 49.9697 50.2232 49.5371 50.7544 49.5371H52.8092C53.3403 49.5371 53.7737 49.9697 53.7737 50.4999C53.7737 51.0301 53.3403 51.4626 52.8092 51.4626H51.7189V52.5509C51.7189 53.0811 51.2856 53.5136 50.7544 53.5136Z" fill="#B4CAE3"/>
<path d="M50.7544 99.1384C50.2232 99.1384 49.7899 98.7059 49.7899 98.1757V94.2551C49.7899 93.7249 50.2232 93.2923 50.7544 93.2923C51.2856 93.2923 51.7189 93.7249 51.7189 94.2551V98.1757C51.7189 98.7059 51.2856 99.1384 50.7544 99.1384ZM50.7544 91.5343C50.2232 91.5343 49.7899 91.1018 49.7899 90.5716V86.6509C49.7899 86.1207 50.2232 85.6882 50.7544 85.6882C51.2856 85.6882 51.7189 86.1207 51.7189 86.6509V90.5716C51.7189 91.1018 51.2856 91.5343 50.7544 91.5343ZM50.7544 83.9302C50.2232 83.9302 49.7899 83.4976 49.7899 82.9674V79.0468C49.7899 78.5166 50.2232 78.0841 50.7544 78.0841C51.2856 78.0841 51.7189 78.5166 51.7189 79.0468V82.9674C51.7189 83.4976 51.2856 83.9302 50.7544 83.9302ZM50.7544 76.326C50.2232 76.326 49.7899 75.8935 49.7899 75.3633V71.4426C49.7899 70.9124 50.2232 70.4799 50.7544 70.4799C51.2856 70.4799 51.7189 70.9124 51.7189 71.4426V75.3633C51.7189 75.8935 51.2856 76.326 50.7544 76.326ZM50.7544 68.7219C50.2232 68.7219 49.7899 68.2894 49.7899 67.7592V63.8385C49.7899 63.3083 50.2232 62.8758 50.7544 62.8758C51.2856 62.8758 51.7189 63.3083 51.7189 63.8385V67.7592C51.7189 68.2894 51.2856 68.7219 50.7544 68.7219ZM50.7544 61.1177C50.2232 61.1177 49.7899 60.6852 49.7899 60.155V56.2344C49.7899 55.7042 50.2232 55.2716 50.7544 55.2716C51.2856 55.2716 51.7189 55.7042 51.7189 56.2344V60.155C51.7189 60.6852 51.2856 61.1177 50.7544 61.1177Z" fill="#B4CAE3"/>
<path d="M141.486 118.072C140.955 118.072 140.522 117.64 140.522 117.109V113.021C140.522 112.491 140.955 112.059 141.486 112.059C142.017 112.059 142.451 112.491 142.451 113.021V117.109C142.451 117.64 142.017 118.072 141.486 118.072ZM141.486 110.133C140.955 110.133 140.522 109.701 140.522 109.17V105.082C140.522 104.552 140.955 104.12 141.486 104.12C142.017 104.12 142.451 104.552 142.451 105.082V109.17C142.451 109.701 142.017 110.133 141.486 110.133ZM141.486 102.194C140.955 102.194 140.522 101.762 140.522 101.231V97.1432C140.522 96.613 140.955 96.1805 141.486 96.1805C142.017 96.1805 142.451 96.613 142.451 97.1432V101.231C142.451 101.762 142.017 102.194 141.486 102.194ZM141.486 94.2551C140.955 94.2551 140.522 93.8225 140.522 93.2923V89.2042C140.522 88.674 140.955 88.2415 141.486 88.2415C142.017 88.2415 142.451 88.674 142.451 89.2042V93.2923C142.451 93.8225 142.017 94.2551 141.486 94.2551ZM141.486 86.3161C140.955 86.3161 140.522 85.8835 140.522 85.3533V81.2652C140.522 80.735 140.955 80.3025 141.486 80.3025C142.017 80.3025 142.451 80.735 142.451 81.2652V85.3533C142.451 85.8835 142.017 86.3161 141.486 86.3161ZM138.173 81.6699H134.078C133.547 81.6699 133.113 81.2373 133.113 80.7071C133.113 80.1769 133.547 79.7444 134.078 79.7444H138.173C138.705 79.7444 139.138 80.1769 139.138 80.7071C139.138 81.2373 138.705 81.6699 138.173 81.6699ZM130.22 81.6699H126.124C125.593 81.6699 125.16 81.2373 125.16 80.7071C125.16 80.1769 125.593 79.7444 126.124 79.7444H130.22C130.751 79.7444 131.184 80.1769 131.184 80.7071C131.184 81.2373 130.751 81.6699 130.22 81.6699ZM122.266 81.6699H118.171C117.64 81.6699 117.206 81.2373 117.206 80.7071C117.206 80.1769 117.64 79.7444 118.171 79.7444H122.266C122.797 79.7444 123.231 80.1769 123.231 80.7071C123.231 81.2373 122.797 81.6699 122.266 81.6699ZM114.313 81.6699H114.229C113.698 81.6699 113.264 81.2373 113.264 80.7071C113.264 80.1769 113.698 79.7444 114.229 79.7444H114.313C114.844 79.7444 115.277 80.1769 115.277 80.7071C115.277 81.2373 114.844 81.6699 114.313 81.6699Z" fill="#B4CAE3"/>
<path d="M649.575 236.99H651.63C652.161 236.99 652.595 236.557 652.595 236.027V233.976C652.595 233.446 652.161 233.013 651.63 233.013C651.099 233.013 650.666 233.446 650.666 233.976V235.064H649.575C649.044 235.064 648.611 235.497 648.611 236.027C648.611 236.557 649.044 236.99 649.575 236.99Z" fill="#B4CAE3"/>
<path d="M593.16 236.027C593.16 235.497 593.593 235.064 594.124 235.064H598.206C598.737 235.064 599.17 235.497 599.17 236.027C599.17 236.557 598.737 236.99 598.206 236.99H594.124C593.593 236.99 593.16 236.557 593.16 236.027ZM601.085 236.027C601.085 235.497 601.519 235.064 602.05 235.064H606.132C606.663 235.064 607.096 235.497 607.096 236.027C607.096 236.557 606.663 236.99 606.132 236.99H602.05C601.519 236.99 601.085 236.557 601.085 236.027ZM609.011 236.027C609.011 235.497 609.444 235.064 609.975 235.064H614.057C614.588 235.064 615.022 235.497 615.022 236.027C615.022 236.557 614.588 236.99 614.057 236.99H609.975C609.444 236.99 609.011 236.557 609.011 236.027ZM616.937 236.027C616.937 235.497 617.37 235.064 617.901 235.064H621.983C622.514 235.064 622.947 235.497 622.947 236.027C622.947 236.557 622.514 236.99 621.983 236.99H617.901C617.37 236.99 616.937 236.557 616.937 236.027ZM624.862 236.027C624.862 235.497 625.295 235.064 625.827 235.064H629.908C630.439 235.064 630.873 235.497 630.873 236.027C630.873 236.557 630.439 236.99 629.908 236.99H625.827C625.295 236.99 624.862 236.557 624.862 236.027ZM632.788 236.027C632.788 235.497 633.221 235.064 633.752 235.064H637.834C638.365 235.064 638.798 235.497 638.798 236.027C638.798 236.557 638.365 236.99 637.834 236.99H633.752C633.221 236.99 632.788 236.557 632.788 236.027ZM640.713 236.027C640.713 235.497 641.147 235.064 641.678 235.064H645.759C646.291 235.064 646.724 235.497 646.724 236.027C646.724 236.557 646.291 236.99 645.759 236.99H641.678C641.147 236.99 640.713 236.557 640.713 236.027Z" fill="#B4CAE3"/>
<path d="M588.24 236.99H590.294C590.825 236.99 591.259 236.557 591.259 236.027C591.259 235.497 590.825 235.064 590.294 235.064H589.204V233.976C589.204 233.446 588.771 233.013 588.24 233.013C587.708 233.013 587.275 233.446 587.275 233.976V236.027C587.275 236.557 587.708 236.99 588.24 236.99Z" fill="#B4CAE3"/>
<path d="M587.275 230.292V226.372C587.275 225.842 587.708 225.409 588.24 225.409C588.771 225.409 589.204 225.842 589.204 226.372V230.292C589.204 230.823 588.771 231.255 588.24 231.255C587.708 231.255 587.275 230.823 587.275 230.292ZM587.275 222.688V218.768C587.275 218.237 587.708 217.805 588.24 217.805C588.771 217.805 589.204 218.237 589.204 218.768V222.688C589.204 223.218 588.771 223.651 588.24 223.651C587.708 223.651 587.275 223.218 587.275 222.688ZM587.275 215.084V211.163C587.275 210.633 587.708 210.201 588.24 210.201C588.771 210.201 589.204 210.633 589.204 211.163V215.084C589.204 215.614 588.771 216.047 588.24 216.047C587.708 216.047 587.275 215.614 587.275 215.084ZM587.275 207.48V203.559C587.275 203.029 587.708 202.597 588.24 202.597C588.771 202.597 589.204 203.029 589.204 203.559V207.48C589.204 208.01 588.771 208.443 588.24 208.443C587.708 208.443 587.275 208.01 587.275 207.48ZM587.275 199.876V195.955C587.275 195.425 587.708 194.992 588.24 194.992C588.771 194.992 589.204 195.425 589.204 195.955V199.876C589.204 200.406 588.771 200.839 588.24 200.839C587.708 200.839 587.275 200.406 587.275 199.876ZM587.275 192.272V188.351C587.275 187.821 587.708 187.388 588.24 187.388C588.771 187.388 589.204 187.821 589.204 188.351V192.272C589.204 192.802 588.771 193.234 588.24 193.234C587.708 193.234 587.275 192.802 587.275 192.272Z" fill="#B4CAE3"/>
<path d="M588.24 185.63C588.771 185.63 589.204 185.198 589.204 184.668V183.579H590.294C590.825 183.579 591.259 183.147 591.259 182.617C591.259 182.086 590.825 181.654 590.294 181.654H588.24C587.708 181.654 587.275 182.086 587.275 182.617V184.668C587.275 185.198 587.708 185.63 588.24 185.63Z" fill="#B4CAE3"/>
<path d="M593.16 182.617C593.16 182.086 593.593 181.654 594.124 181.654H598.206C598.737 181.654 599.17 182.086 599.17 182.617C599.17 183.147 598.737 183.579 598.206 183.579H594.124C593.593 183.579 593.16 183.147 593.16 182.617ZM601.085 182.617C601.085 182.086 601.519 181.654 602.05 181.654H606.132C606.663 181.654 607.096 182.086 607.096 182.617C607.096 183.147 606.663 183.579 606.132 183.579H602.05C601.519 183.579 601.085 183.147 601.085 182.617ZM609.011 182.617C609.011 182.086 609.444 181.654 609.975 181.654H614.057C614.588 181.654 615.022 182.086 615.022 182.617C615.022 183.147 614.588 183.579 614.057 183.579H609.975C609.444 183.579 609.011 183.147 609.011 182.617ZM616.937 182.617C616.937 182.086 617.37 181.654 617.901 181.654H621.983C622.514 181.654 622.947 182.086 622.947 182.617C622.947 183.147 622.514 183.579 621.983 183.579H617.901C617.37 183.579 616.937 183.147 616.937 182.617ZM624.862 182.617C624.862 182.086 625.295 181.654 625.827 181.654H629.908C630.439 181.654 630.873 182.086 630.873 182.617C630.873 183.147 630.439 183.579 629.908 183.579H625.827C625.295 183.579 624.862 183.147 624.862 182.617ZM632.788 182.617C632.788 182.086 633.221 181.654 633.752 181.654H637.834C638.365 181.654 638.798 182.086 638.798 182.617C638.798 183.147 638.365 183.579 637.834 183.579H633.752C633.221 183.579 632.788 183.147 632.788 182.617ZM640.713 182.617C640.713 182.086 641.147 181.654 641.678 181.654H645.759C646.291 181.654 646.724 182.086 646.724 182.617C646.724 183.147 646.291 183.579 645.759 183.579H641.678C641.147 183.579 640.713 183.147 640.713 182.617Z" fill="#B4CAE3"/>
<path d="M651.63 185.63C652.161 185.63 652.595 185.198 652.595 184.668V182.617C652.595 182.086 652.161 181.654 651.63 181.654H649.575C649.044 181.654 648.611 182.086 648.611 182.617C648.611 183.147 649.044 183.579 649.575 183.579H650.666V184.668C650.666 185.198 651.099 185.63 651.63 185.63Z" fill="#B4CAE3"/>
<path d="M650.666 230.292V226.372C650.666 225.842 651.099 225.409 651.63 225.409C652.161 225.409 652.595 225.842 652.595 226.372V230.292C652.595 230.823 652.161 231.255 651.63 231.255C651.099 231.255 650.666 230.823 650.666 230.292ZM650.666 222.688V218.768C650.666 218.237 651.099 217.805 651.63 217.805C652.161 217.805 652.595 218.237 652.595 218.768V222.688C652.595 223.218 652.161 223.651 651.63 223.651C651.099 223.651 650.666 223.218 650.666 222.688ZM650.666 215.084V211.163C650.666 210.633 651.099 210.201 651.63 210.201C652.161 210.201 652.595 210.633 652.595 211.163V215.084C652.595 215.614 652.161 216.047 651.63 216.047C651.099 216.047 650.666 215.614 650.666 215.084ZM650.666 207.48V203.559C650.666 203.029 651.099 202.597 651.63 202.597C652.161 202.597 652.595 203.029 652.595 203.559V207.48C652.595 208.01 652.161 208.443 651.63 208.443C651.099 208.443 650.666 208.01 650.666 207.48ZM650.666 199.876V195.955C650.666 195.425 651.099 194.992 651.63 194.992C652.161 194.992 652.595 195.425 652.595 195.955V199.876C652.595 200.406 652.161 200.839 651.63 200.839C651.099 200.839 650.666 200.406 650.666 199.876ZM650.666 192.272V188.351C650.666 187.821 651.099 187.388 651.63 187.388C652.161 187.388 652.595 187.821 652.595 188.351V192.272C652.595 192.802 652.161 193.234 651.63 193.234C651.099 193.234 650.666 192.802 650.666 192.272Z" fill="#B4CAE3"/>
<path d="M584.228 211.847H580.132C579.601 211.847 579.168 212.28 579.168 212.81C579.168 213.34 579.601 213.773 580.132 213.773H584.228C584.759 213.773 585.192 213.34 585.192 212.81C585.192 212.28 584.759 211.847 584.228 211.847Z" fill="#B4CAE3"/>
<path d="M575.38 211.847H574.401V213.773H575.38C575.911 213.773 576.344 213.34 576.344 212.81C576.344 212.28 575.911 211.847 575.38 211.847Z" fill="#B4CAE3"/>
<path d="M588.17 211.847H588.086C587.555 211.847 587.121 212.28 587.121 212.81C587.121 213.34 587.555 213.773 588.086 213.773H588.17C588.701 213.773 589.134 213.34 589.134 212.81C589.134 212.28 588.701 211.847 588.17 211.847Z" fill="#B4CAE3"/>
<path d="M620.808 221.53C613.931 221.53 608.326 215.949 608.326 209.071C608.326 207.271 608.717 205.555 609.416 204.006L609.934 209.196C609.989 209.824 610.521 210.284 611.136 210.284C611.206 210.284 611.275 210.284 611.345 210.271C611.974 210.173 612.394 209.559 612.338 208.931L611.541 200.936C611.471 200.267 610.87 199.792 610.213 199.862L602.19 200.657C601.617 200.713 601.127 201.159 601.071 201.732C601.002 202.513 601.645 203.127 602.399 203.057L606.495 202.652C605.419 205.038 604.901 207.717 605.167 210.563C605.852 217.916 611.723 223.874 619.075 224.67C620.892 224.865 622.64 224.753 624.303 224.363C625.505 224.084 625.952 222.618 625.114 221.712C625.114 221.712 625.1 221.698 625.086 221.684C624.694 221.265 624.107 221.098 623.548 221.223C622.668 221.419 621.745 221.53 620.794 221.53H620.808Z" fill="#007EFF"/>
<path d="M641.412 212.963C641.147 212.21 640.294 211.931 639.651 212.308L635.388 214.819C636.1 213.033 636.506 211.108 636.506 209.071C636.506 200.434 629.461 193.402 620.808 193.402C619.942 193.402 619.103 193.472 618.278 193.611C617.02 193.82 616.531 195.369 617.412 196.29C617.412 196.29 617.426 196.304 617.44 196.318C617.803 196.695 618.334 196.862 618.865 196.778C619.495 196.681 620.151 196.625 620.808 196.625C627.686 196.625 633.291 202.206 633.291 209.085C633.291 210.675 632.983 212.21 632.424 213.605L630.23 209.894C629.88 209.308 629.097 209.126 628.524 209.503C627.979 209.866 627.853 210.619 628.189 211.177L632.27 218.07C632.494 218.447 632.9 218.656 633.305 218.656C633.515 218.656 633.724 218.6 633.92 218.489L640.853 214.4C641.342 214.107 641.594 213.507 641.412 212.963Z" fill="#007EFF"/>
</svg>
